<?xml version="1.0" encoding="UTF-8"?>
<svg version="1.1" xmlns="http://www.w3.org/2000/svg" width="220" height="220">
<path d="M0 0 C22.49617456 18.29286248 36.90238462 44.19216511 40.19018555 73.11010742 C42.83314912 103.34546805 33.60217628 131.40102916 14.24609375 154.7421875 C-5.27951087 177.05716421 -30.77706726 191.3085802 -60.71850586 193.32006836 C-88.62003539 194.59366123 -116.77359566 185.98531974 -138.05078125 167.54296875 C-138.9015625 166.76308594 -139.75234375 165.98320312 -140.62890625 165.1796875 C-141.99789062 163.93251953 -141.99789062 163.93251953 -143.39453125 162.66015625 C-163.49084816 143.49006623 -175.59540422 117.01377631 -176.62890625 89.1796875 C-177.06772356 60.89791209 -168.57966576 32.06995646 -148.62890625 11.1796875 C-147.96890625 11.1796875 -147.30890625 11.1796875 -146.62890625 11.1796875 C-146.41621094 10.62667969 -146.20351562 10.07367188 -145.984375 9.50390625 C-144.16295633 6.38072438 -141.68167294 4.28275902 -138.94140625 1.9921875 C-138.3676123 1.51241455 -137.79381836 1.0326416 -137.20263672 0.53833008 C-97.69095515 -31.64276869 -39.76747351 -31.34225136 0 0 Z M-140.62890625 13.1796875 C-141.428125 13.95828125 -142.22734375 14.736875 -143.05078125 15.5390625 C-160.45828166 33.42676982 -167.87381796 59.75422294 -168.62890625 84.1796875 C-168.66886719 85.0975 -168.70882812 86.0153125 -168.75 86.9609375 C-169.38542666 112.97605269 -158.22684451 135.15538581 -141.0703125 153.98828125 C-124.38129132 171.45240936 -99.91310838 184.68256433 -75.35546875 185.3828125 C-46.31786794 185.75936707 -21.56340581 178.87525887 0.37109375 159.1796875 C1.06589844 158.56738281 1.76070312 157.95507812 2.4765625 157.32421875 C22.78211063 138.31563178 31.71568326 111.09493045 32.68359375 83.8671875 C31.97888851 54.57787606 19.73385453 28.30401205 -1.34765625 8.1875 C-40.69757978 -26.4458231 -103.86677843 -24.44237313 -140.62890625 13.1796875 Z M-7.31640625 7.1171875 C12.49854652 23.78639491 25.76903063 45.85472476 29.08984375 71.71875 C31.50382316 101.42410769 23.56262884 127.18495186 4.37109375 150.1796875 C-13.72076832 170.92071508 -39.26364146 180.31440407 -66.078125 182.3671875 C-92.87622976 183.18389165 -117.31158266 172.34933674 -137.1171875 155 C-155.86579397 137.31996695 -165.41809701 112.18034901 -166.8125 86.84375 C-167.39004018 58.78209178 -156.39846999 33.67621433 -137.37890625 13.4921875 C-101.89329918 -20.4370333 -45.96969056 -22.84059679 -7.31640625 7.1171875 Z M-134.62890625 22.1796875 C-135.29664063 22.84742187 -135.964375 23.51515625 -136.65234375 24.203125 C-152.50668424 41.20529105 -159.42775249 64.6767754 -158.84765625 87.56640625 C-157.30137021 113.10773819 -147.07330665 134.75780187 -128.63671875 152.578125 C-108.33655531 170.13644818 -83.85712059 175.67123892 -57.60302734 174.40722656 C-50.93956051 173.89742923 -44.93122069 172.42004513 -38.62890625 170.1796875 C-36.83646484 169.54353516 -36.83646484 169.54353516 -35.0078125 168.89453125 C-13.04097776 160.25696972 3.00228389 143.6574921 13.18359375 122.6796875 C23.49867679 98.58736553 23.34823568 71.20181944 14.12109375 46.8671875 C4.76320948 26.01165885 -13.49194644 8.02101314 -34.75537109 -0.41137695 C-70.23635711 -13.90692849 -108.14219094 -4.30702781 -134.62890625 22.1796875 Z " fill="#E37C25" transform="translate(177.62890625,24.8203125)"/>
<path d="M0 0 C12.04668949 9.49864127 21.37863775 22.3552836 23.87109375 37.7734375 C24.74167355 46.27770302 25.02020805 54.74183473 25.00390625 63.28515625 C25.00486298 64.41943558 25.0058197 65.5537149 25.00680542 66.72236633 C25.00748022 69.09787044 25.00567529 71.47337648 25.00146484 73.84887695 C24.99609151 77.46244472 25.00144153 81.07588907 25.0078125 84.68945312 C25.00715189 87.0130211 25.00587107 89.33658901 25.00390625 91.66015625 C25.00593048 92.72707199 25.00795471 93.79398773 25.01004028 94.89323425 C24.95036381 114.17321667 24.95036381 114.17321667 19.87109375 119.7734375 C14.74959947 124.03748703 9.58492285 126.1612399 2.87109375 125.7734375 C-3.27576161 124.10649367 -6.52306727 120.79499179 -10.12890625 115.7734375 C-11.54669592 112.93785817 -11.27722658 110.5295451 -11.30249023 107.35864258 C-11.30917725 106.69969498 -11.31586426 106.04074738 -11.32275391 105.36183167 C-11.33682162 103.92682061 -11.34871018 102.49178694 -11.35870171 101.05674171 C-11.37515496 98.77144558 -11.39840497 96.48631107 -11.42359924 94.20109558 C-11.49418039 87.70161091 -11.55387861 81.20205294 -11.60571289 74.70239258 C-11.63790962 70.72530867 -11.67930087 66.74839938 -11.72590828 62.77145958 C-11.74171497 61.26832996 -11.75413209 59.76516007 -11.76281548 58.26197243 C-11.44118851 37.45354086 -11.44118851 37.45354086 -19.12890625 18.7734375 C-25.41110128 12.78572036 -30.5529179 11.46568582 -39.12109375 11.55859375 C-45.76766983 12.03334918 -50.42932425 15.0738555 -55.12890625 19.7734375 C-59.10066008 26.12318406 -60.24768674 31.50051112 -60.30249023 38.96948242 C-60.30917725 39.68712769 -60.31586426 40.40477295 -60.32275391 41.14416504 C-60.33677845 42.69974782 -60.34868072 44.25535086 -60.35870171 45.81096458 C-60.37517138 48.27959374 -60.39841416 50.7480743 -60.42359924 53.21662903 C-60.49419146 60.23459396 -60.55429683 67.25262084 -60.60571289 74.27075195 C-60.6376691 78.56781942 -60.67898933 82.86471704 -60.72590828 87.16164589 C-60.74183329 88.79254385 -60.7541982 90.42348088 -60.76281548 92.05443382 C-60.88154378 114.21423441 -60.88154378 114.21423441 -66.12890625 120.7734375 C-70.79939412 124.77671281 -75.09361798 126.0024996 -81.12890625 125.7734375 C-87.40000274 124.79034482 -91.12561388 122.4442745 -95.03515625 117.4921875 C-105.75390199 100.64844419 -99.60418527 52.91726024 -96.12890625 33.7734375 C-92.61154365 19.27978255 -83.88392964 6.46537928 -71.26416016 -1.49291992 C-49.27331159 -14.56237708 -21.08631776 -15.00524485 0 0 Z " fill="#EC8025" transform="translate(146.12890625,46.2265625)"/>
<path d="M0 0 C0.66 0.33 1.32 0.66 2 1 C1.67 1.66 1.34 2.32 1 3 C2.32 2.67 3.64 2.34 5 2 C5.34375 4.17578125 5.34375 4.17578125 5 7 C3.20556938 8.94695722 1.52700207 10.52369178 -0.5 12.1875 C-18.1104973 27.48846638 -27.68784444 47.94403749 -30 71 C-31.59155536 96.31330914 -24.23589813 119.51111333 -8 139 C-6.87480712 140.12519288 -5.732533 141.23400993 -4.5625 142.3125 C-1.44695542 145.58002237 -0.87038134 147.64809332 0 152 C-2.475 152.99 -2.475 152.99 -5 154 C-25.82131208 134.57974818 -37.61753627 110.1196601 -39.18359375 81.6640625 C-39.73725019 54.7628733 -29.65433993 29.94644418 -11.5390625 10.3359375 C-7.89763618 6.62192461 -4.18473758 3.1048053 0 0 Z " fill="#D97623" transform="translate(50,30)"/>
<path d="M0 0 C0.99 0.804375 1.98 1.60875 3 2.4375 C24.98199271 18.79799546 50.30436444 24.9714764 77.53222656 21.6953125 C82.17728786 20.8963375 86.55501299 19.58011166 91 18 C92.19496094 17.57589844 93.38992187 17.15179688 94.62109375 16.71484375 C102.30428307 13.69374302 108.68134072 9.75092219 115.2578125 4.85546875 C117.65827579 3.23122364 119.17766685 2.41187158 122 2 C121.34 3.98 120.68 5.96 120 8 C120.66 8 121.32 8 122 8 C122 7.34 122 6.68 122 6 C122.66 6 123.32 6 124 6 C119.993076 15.70097389 105.20366145 21.07834231 96 25 C71.41192084 34.09973672 43.57057652 32.78181426 19.6875 22.140625 C12.12722375 18.58541207 5.27872834 14.58109186 -1 9 C-0.67 8.01 -0.34 7.02 0 6 C0.66 6 1.32 6 2 6 C1.34 5.01 0.68 4.02 0 3 C0 2.01 0 1.02 0 0 Z " fill="#EF8228" transform="translate(48,176)"/>
<path d="M0 0 C0 0.66 0 1.32 0 2 C-2.22848927 2.08322159 -4.45795989 2.14015891 -6.6875 2.1875 C-8.54955078 2.23970703 -8.54955078 2.23970703 -10.44921875 2.29296875 C-14.18076897 2.21075904 -17.5136825 1.43523095 -21.125 0.51171875 C-28.24424719 -1.22399311 -35.00940213 -1.4595131 -42.3125 -1.375 C-43.58706055 -1.36484863 -44.86162109 -1.35469727 -46.17480469 -1.34423828 C-68.39380067 -0.97873835 -93.35365837 5.16664489 -110.25 20.625 C-111.1575 21.40875 -112.065 22.1925 -113 23 C-115.171875 22.6484375 -115.171875 22.6484375 -117 22 C-116.67 21.34 -116.34 20.68 -116 20 C-114.68 20 -113.36 20 -112 20 C-112.33 18.35 -112.66 16.7 -113 15 C-112.01 14.34 -111.02 13.68 -110 13 C-109.67 12.01 -109.34 11.02 -109 10 C-106.81570032 8.42909955 -104.68813236 7.04294964 -102.375 5.6875 C-101.69985352 5.29087158 -101.02470703 4.89424316 -100.32910156 4.4855957 C-70.25798499 -12.73930189 -31.42294836 -15.03372431 0 0 Z " fill="#ED8127" transform="translate(155,11)"/>
<path d="M0 0 C13.95716839 -0.73890891 28.14859334 1.42350857 41 7 C40.67 8.98 40.34 10.96 40 13 C36.13274386 14.28908538 34.51755077 13.40610118 30.6875 12.125 C8.95619199 4.90647028 -16.66535434 7.81884408 -37 18 C-41.06104288 20.23800296 -45.05089815 22.57032209 -49 25 C-49.44988281 24.49855469 -49.89976563 23.99710938 -50.36328125 23.48046875 C-50.90339844 22.99191406 -51.44351563 22.50335938 -52 22 C-54.16299211 22.22757731 -54.16299211 22.22757731 -56 23 C-49.32695716 11.53019776 -33.78071165 6.48586357 -21.578125 3.03125 C-14.43094565 1.25268924 -7.21488618 -0.40496206 0 2 C0 1.34 0 0.68 0 0 Z " fill="#EE8227" transform="translate(105,11)"/>
<path d="M0 0 C1.32 0 2.64 0 4 0 C4 0.66 4 1.32 4 2 C2.68 2 1.36 2 0 2 C0 1.34 0 0.68 0 0 Z M-92 57 C-91.34 57 -90.68 57 -90 57 C-88.7922442 60.62326739 -89.45688872 61.64146369 -91 65 C-91.66 65 -92.32 65 -93 65 C-93.66 68.3 -94.32 71.6 -95 75 C-93.68 74.34 -92.36 73.68 -91 73 C-91.33 76.96 -91.66 80.92 -92 85 C-91.67 85 -91.34 85 -91 85 C-91 89.29 -91 93.58 -91 98 C-91.99 97.67 -92.98 97.34 -94 97 C-93.90460938 97.96421875 -93.80921875 98.9284375 -93.7109375 99.921875 C-93.60007812 101.18515625 -93.48921875 102.4484375 -93.375 103.75 C-93.25898437 105.00296875 -93.14296875 106.2559375 -93.0234375 107.546875 C-93.0000797 110.98825768 -93.38799209 112.11792525 -95 115 C-95.23979762 117.36222232 -95.23979762 117.36222232 -95.125 119.75 C-95.10695313 120.54921875 -95.08890625 121.3484375 -95.0703125 122.171875 C-95.04710938 122.77515625 -95.02390625 123.3784375 -95 124 C-95.66 124 -96.32 124 -97 124 C-102.07941499 101.26591933 -100.43026269 78.7019048 -92 57 Z " fill="#D87724" transform="translate(101,11)"/>
<path d="M0 0 C2.67436535 9.03112605 -0.88066544 17.00453882 -5 25 C-5.66 25 -6.32 25 -7 25 C-7 25.99 -7 26.98 -7 28 C-7.99 28 -8.98 28 -10 28 C-10.144375 28.78375 -10.28875 29.5675 -10.4375 30.375 C-11 33 -11 33 -12 35 C-11.01 35 -10.02 35 -9 35 C-9.51217102 39.36897404 -10.94377253 41.57526527 -13.875 44.8125 C-14.57367188 45.60269531 -15.27234375 46.39289063 -15.9921875 47.20703125 C-18 49 -18 49 -21 49 C-21.495 49.495 -21.99 49.99 -22.5 50.5 C-22.995 50.995 -23.49 51.49 -24 52 C-24.99 52 -25.98 52 -27 52 C-27.67578125 50.1796875 -27.67578125 50.1796875 -28 48 C-26.91796875 46.5703125 -26.91796875 46.5703125 -25.1875 45.125 C-12.7322806 33.41411642 -3.90785629 16.56768238 0 0 Z " fill="#DB7722" transform="translate(206,135)"/>
<path d="M0 0 C10.22183768 4.76067821 19.25242148 9.8428903 28 17 C27.34 17.33 26.68 17.66 26 18 C26 19.32 26 20.64 26 22 C21.06164196 22.60134987 18.76723093 20.77265595 14.875 17.875 C9.16514183 13.720209 3.29636786 10.21758277 -3 7 C-2.34 6.67 -1.68 6.34 -1 6 C-1.33 5.01 -1.66 4.02 -2 3 C-1.34 2.01 -0.68 1.02 0 0 Z " fill="#E77D26" transform="translate(146,18)"/>
<path d="M0 0 C0.66 0 1.32 0 2 0 C2.04487549 0.57854736 2.08975098 1.15709473 2.13598633 1.75317383 C3.19359922 16.00736377 3.19359922 16.00736377 6.40234375 29.890625 C7.17882771 32.63115661 7.22930066 35.17195856 7 38 C6.01 37.34 5.02 36.68 4 36 C3.67 36.66 3.34 37.32 3 38 C2.01 37.67 1.02 37.34 0 37 C-1.85726598 32.79019711 -2.27175468 29.06848182 -2.25 24.5 C-2.25515625 23.4171875 -2.2603125 22.334375 -2.265625 21.21875 C-2 18 -2 18 -0.9921875 14.9921875 C0.10294619 11.68954023 0.20202043 9.09091917 0.125 5.625 C0.10695313 4.56539063 0.08890625 3.50578125 0.0703125 2.4140625 C0.04710937 1.61742188 0.02390625 0.82078125 0 0 Z " fill="#E47B25" transform="translate(7,108)"/>
<path d="M0 0 C0.33 0.66 0.66 1.32 1 2 C1.61488281 2.07863281 2.22976562 2.15726563 2.86328125 2.23828125 C5 3 5 3 6.66796875 5.73046875 C7.16941406 6.87128906 7.67085937 8.01210937 8.1875 9.1875 C8.95126953 10.87939453 8.95126953 10.87939453 9.73046875 12.60546875 C10.91727535 15.77880701 11.57788484 18.64850737 12 22 C11.34 22.33 10.68 22.66 10 23 C9.34 22.67 8.68 22.34 8 22 C7.67 23.32 7.34 24.64 7 26 C7 25.01 7 24.02 7 23 C6.01 23 5.02 23 4 23 C0.64008896 15.37378332 -2.14551045 8.31385301 0 0 Z " fill="#D77423" transform="translate(190,58)"/>
<path d="M0 0 C0.33 0.66 0.66 1.32 1 2 C0.17455193 4.07112424 -0.73849364 6.1074998 -1.6875 8.125 C-6.00655131 17.67092067 -8.38857553 27.6613559 -10 38 C-10.66 38 -11.32 38 -12 38 C-12.33 38.99 -12.66 39.98 -13 41 C-12.67 36.38 -12.34 31.76 -12 27 C-12.99 27.33 -13.98 27.66 -15 28 C-14.34 24.7 -13.68 21.4 -13 18 C-12.34 18 -11.68 18 -11 18 C-10.25073929 14.33694766 -9.7619986 11.57644848 -11 8 C-10.34 8 -9.68 8 -9 8 C-9 8.66 -9 9.32 -9 10 C-7.35 10 -5.7 10 -4 10 C-3.896875 8.906875 -3.79375 7.81375 -3.6875 6.6875 C-3.02692273 3.14440371 -2.7972908 2.06756277 0 0 Z " fill="#E57D27" transform="translate(21,58)"/>
<path d="M0 0 C6.94339623 -0.15780446 6.94339623 -0.15780446 10 1 C12.140625 3.06640625 12.140625 3.06640625 14.25 5.5625 C14.95640625 6.38878906 15.6628125 7.21507812 16.390625 8.06640625 C16.92171875 8.70449219 17.4528125 9.34257813 18 10 C17.01 10.66 16.02 11.32 15 12 C15.33 13.98 15.66 15.96 16 18 C15.01 18 14.02 18 13 18 C11.1328125 15.98828125 11.1328125 15.98828125 9.125 13.3125 C6.8764069 10.37522341 4.71636567 7.57707851 2 5.0625 C0 3 0 3 0 0 Z " fill="#E67B24" transform="translate(176,31)"/>
<path d="M0 0 C0.49628906 0.38671875 0.99257813 0.7734375 1.50390625 1.171875 C5.84883147 4.50270951 10.18629161 7.39257462 15 10 C14.814375 10.928125 14.62875 11.85625 14.4375 12.8125 C13.75876119 16.01343771 13.75876119 16.01343771 15 19 C11.20873712 17.62011693 8.02476969 15.88939929 4.6875 13.625 C3.80449219 13.03976563 2.92148437 12.45453125 2.01171875 11.8515625 C1.34785156 11.24054688 0.68398438 10.62953125 0 10 C0 8.68 0 7.36 0 6 C0.66 6 1.32 6 2 6 C1.34 5.01 0.68 4.02 0 3 C0 2.01 0 1.02 0 0 Z " fill="#DF7A25" transform="translate(48,176)"/>
<path d="M0 0 C0.66 0.66 1.32 1.32 2 2 C4.60280568 1.67958603 4.60280568 1.67958603 7 1 C8 3 8 3 7.07421875 6.00390625 C6.38779297 7.76541016 6.38779297 7.76541016 5.6875 9.5625 C5.01267578 11.32787109 5.01267578 11.32787109 4.32421875 13.12890625 C3 16 3 16 1 17 C0.67 14.69 0.34 12.38 0 10 C-0.66 10.66 -1.32 11.32 -2 12 C-2 13.155 -2 14.31 -2 15.5 C-2 16.655 -2 17.81 -2 19 C-2.66 19.66 -3.32 20.32 -4 21 C-4 20.34 -4 19.68 -4 19 C-4.66 19 -5.32 19 -6 19 C-5.52877252 12.0886636 -2.79363994 6.27795839 0 0 Z " fill="#D77623" transform="translate(21,65)"/>
<path d="M0 0 C1.73828125 2.1796875 1.73828125 2.1796875 3.3125 4.875 C3.84488281 5.75929687 4.37726562 6.64359375 4.92578125 7.5546875 C6 10 6 10 5 13 C4.01 13 3.02 13 2 13 C1.67 13.66 1.34 14.32 1 15 C0.34 13.68 -0.32 12.36 -1 11 C-1.66 11 -2.32 11 -3 11 C-4.49140021 7.37802806 -5.7874262 3.72433382 -7 0 C-3.8300431 -1.0566523 -2.98443547 -1.28151774 0 0 Z " fill="#F18429" transform="translate(31,153)"/>
<path d="M0 0 C1.98 1.65 3.96 3.3 6 5 C6.66 4.34 7.32 3.68 8 3 C10.89932357 5.39509338 11.50168276 7.31245243 12 11 C10.68 11.99 9.36 12.98 8 14 C8.60183749 16.02045442 9.27306096 18.02111039 10 20 C10.66 20.33 11.32 20.66 12 21 C11.01 21 10.02 21 9 21 C7.67997444 18.44113496 6.36886218 15.87832932 5.0625 13.3125 C4.68931641 12.59126953 4.31613281 11.87003906 3.93164062 11.12695312 C2.06034761 7.43494258 0.51730444 4.16306904 0 0 Z " fill="#BF691F" transform="translate(17,141)"/>
<path d="M0 0 C-0.84054997 5.56740746 -3.1680866 9.87738972 -7 14 C-10.375 14.5625 -10.375 14.5625 -13 14 C-13.33 14.66 -13.66 15.32 -14 16 C-14 14.68 -14 13.36 -14 12 C-13.01 12 -12.02 12 -11 12 C-9.87996805 9.2799224 -8.90509211 6.65426412 -8.125 3.8125 C-7 1 -7 1 -5.0625 -0.4375 C-3 -1 -3 -1 0 0 Z " fill="#EF8324" transform="translate(36,53)"/>
<path d="M0 0 C0 0.99 0 1.98 0 3 C-0.99 3.495 -0.99 3.495 -2 4 C-2 5.65 -2 7.3 -2 9 C-3.98 9.99 -3.98 9.99 -6 11 C-5.34 11.66 -4.68 12.32 -4 13 C-5.65 14.32 -7.3 15.64 -9 17 C-9.33 16.01 -9.66 15.02 -10 14 C-10.4125 14.515625 -10.825 15.03125 -11.25 15.5625 C-11.8275 16.036875 -12.405 16.51125 -13 17 C-15.1875 16.6875 -15.1875 16.6875 -17 16 C-16.67 15.34 -16.34 14.68 -16 14 C-15.34 14 -14.68 14 -14 14 C-13.79632812 13.44828125 -13.59265625 12.8965625 -13.3828125 12.328125 C-11.4709694 9.10931571 -8.76087536 7.05334367 -5.875 4.75 C-5.31167969 4.29109375 -4.74835937 3.8321875 -4.16796875 3.359375 C-2.78377401 2.23325047 -1.39256589 1.11575615 0 0 Z " fill="#DA7320" transform="translate(45,22)"/>
<path d="M0 0 C2.67436535 9.03112605 -0.88066544 17.00453882 -5 25 C-5.66 25 -6.32 25 -7 25 C-7 25.99 -7 26.98 -7 28 C-7.99 28 -8.98 28 -10 28 C-10 28.66 -10 29.32 -10 30 C-10.66 30 -11.32 30 -12 30 C-10.65704137 26.49227223 -9.11847675 23.11479364 -7.48657227 19.73266602 C-4.38353963 13.28475275 -1.72338518 6.97560669 0 0 Z " fill="#B7641D" transform="translate(206,135)"/>
<path d="M0 0 C1.37432457 3.81756824 0.67975039 7.07255329 0 11 C-0.33 10.34 -0.66 9.68 -1 9 C-3.31 9.33 -5.62 9.66 -8 10 C-7.9175 10.70125 -7.835 11.4025 -7.75 12.125 C-8.08667557 15.99676908 -9.57396616 18.01944414 -12 21 C-12.99 21 -13.98 21 -15 21 C-13.59434539 17.14668811 -11.78799023 13.87863435 -9.5625 10.4375 C-8.96566406 9.50808594 -8.36882813 8.57867187 -7.75390625 7.62109375 C-3.41624041 1.1387468 -3.41624041 1.1387468 0 0 Z " fill="#DD7722" transform="translate(37,44)"/>
<path d="M0 0 C0 0.66 0 1.32 0 2 C-1.50390625 3.4453125 -1.50390625 3.4453125 -3.5625 5.125 C-7.82798469 8.73659577 -11.43310564 12.70858022 -15 17 C-15.85801675 13.87993907 -16.15565178 12.08173808 -15 9 C-13.6875 7 -13.6875 7 -12 5 C-11.401875 4.278125 -10.80375 3.55625 -10.1875 2.8125 C-7.0406506 0.2051105 -3.99679965 0 0 0 Z " fill="#EB8129" transform="translate(53,37)"/>
<path d="M0 0 C0.33 0.66 0.66 1.32 1 2 C-0.38003133 5.15075646 -2.22519103 8.05677512 -4 11 C-4.3815625 11.63550781 -4.763125 12.27101563 -5.15625 12.92578125 C-6.03912424 14.32700969 -7.01175716 15.67098377 -8 17 C-8.66 17 -9.32 17 -10 17 C-10.103125 17.680625 -10.20625 18.36125 -10.3125 19.0625 C-11.14725019 22.62915989 -12.49472754 25.66222194 -14 29 C-14.66 28.34 -15.32 27.68 -16 27 C-15.75234057 22.26885091 -13.2323285 18.55851055 -10.8125 14.625 C-10.40974854 13.96105225 -10.00699707 13.29710449 -9.59204102 12.61303711 C-6.75709554 8.02073057 -3.7283307 3.91952715 0 0 Z " fill="#B3631F" transform="translate(27,39)"/>
<path d="M0 0 C0.33 0 0.66 0 1 0 C1 1.98 1 3.96 1 6 C1.33 5.34 1.66 4.68 2 4 C4.0625 3.375 4.0625 3.375 6 3 C5.39169139 9.44807122 5.39169139 9.44807122 3.625 11.9375 C2 13 2 13 -1 13 C-1.33 13.99 -1.66 14.98 -2 16 C-2.66 16 -3.32 16 -4 16 C-4 16.66 -4 17.32 -4 18 C-4.99 18 -5.98 18 -7 18 C-5.64474464 13.78224268 -4.09799886 9.70578678 -2.375 5.625 C-1.92898437 4.56539062 -1.48296875 3.50578125 -1.0234375 2.4140625 C-0.68570313 1.61742187 -0.34796875 0.82078125 0 0 Z " fill="#CE7020" transform="translate(193,139)"/>
<path d="M0 0 C0.99 0.33 1.98 0.66 3 1 C2.67 3.31 2.34 5.62 2 8 C1.34 7.67 0.68 7.34 0 7 C-0.33 7.66 -0.66 8.32 -1 9 C-0.34 9 0.32 9 1 9 C0.71800273 11.4389764 0.42484385 13.87570933 0.125 16.3125 C0.04636719 17.00279297 -0.03226563 17.69308594 -0.11328125 18.40429688 C-0.55943847 21.95639471 -0.97980193 23.9697029 -3 27 C-2.67 22.38 -2.34 17.76 -2 13 C-2.99 13.33 -3.98 13.66 -5 14 C-4.34 10.7 -3.68 7.4 -3 4 C-2.34 4 -1.68 4 -1 4 C-0.67 2.68 -0.34 1.36 0 0 Z " fill="#F68628" transform="translate(11,72)"/>
<path d="M0 0 C0.66 0 1.32 0 2 0 C0.49650623 3.66786393 -1.63728792 5.68910393 -4.625 8.25 C-5.44226563 8.95640625 -6.25953125 9.6628125 -7.1015625 10.390625 C-8.04128906 11.18726563 -8.04128906 11.18726563 -9 12 C-10.32 10.35 -11.64 8.7 -13 7 C-11.35 5.02 -9.7 3.04 -8 1 C-7.01 1.33 -6.02 1.66 -5 2 C-5.33 2.66 -5.66 3.32 -6 4 C-4.35 3.67 -2.7 3.34 -1 3 C-0.67 2.01 -0.34 1.02 0 0 Z " fill="#F08023" transform="translate(185,183)"/>
<path d="M0 0 C2.42242143 3.63363214 2.17302701 4.99843589 1.55859375 9.125 C1 11 1 11 -1.0625 13 C-2.0215625 13.495 -2.0215625 13.495 -3 14 C-3 13.34 -3 12.68 -3 12 C-3.66 12 -4.32 12 -5 12 C-5 12.66 -5 13.32 -5 14 C-5.66 14 -6.32 14 -7 14 C-6.835 13.236875 -6.67 12.47375 -6.5 11.6875 C-5.90854604 8.96403764 -5.90854604 8.96403764 -6 6 C-4.6875 4.39453125 -4.6875 4.39453125 -3 2.8125 C-2.443125 2.28269531 -1.88625 1.75289062 -1.3125 1.20703125 C-0.6628125 0.60955078 -0.6628125 0.60955078 0 0 Z " fill="#D5741F" transform="translate(175,170)"/>
<path d="M0 0 C3.08089673 2.77280706 4.68775452 5.06326356 6 9 C4.68 8.67 3.36 8.34 2 8 C1.67 8.66 1.34 9.32 1 10 C1.66 10 2.32 10 3 10 C2.67 11.98 2.34 13.96 2 16 C-0.74277578 12.80009492 -2.6302836 9.99500618 -4 6 C-3.34 6 -2.68 6 -2 6 C-1.855625 5.195625 -1.71125 4.39125 -1.5625 3.5625 C-1 1 -1 1 0 0 Z " fill="#CF7220" transform="translate(188,52)"/>
<path d="M0 0 C1.32 0 2.64 0 4 0 C4 0.66 4 1.32 4 2 C2.68 2 1.36 2 0 2 C0 1.34 0 0.68 0 0 Z M-99 105 C-98.34 105 -97.68 105 -97 105 C-96.67 105.99 -96.34 106.98 -96 108 C-95.34 107.01 -94.68 106.02 -94 105 C-92.74873354 110.50557244 -92.74873354 110.50557244 -93.96875 112.90625 C-95.18456839 115.37472975 -95.20533979 117.0184472 -95.125 119.75 C-95.10695313 120.54921875 -95.08890625 121.3484375 -95.0703125 122.171875 C-95.04710938 122.77515625 -95.02390625 123.3784375 -95 124 C-95.66 124 -96.32 124 -97 124 C-98.51233701 117.53205867 -99.21432579 111.64409958 -99 105 Z " fill="#B35C19" transform="translate(101,11)"/>
<path d="M0 0 C2.80111566 4.73702185 1.93858051 8.75586764 1 14 C0.12748892 17.37983238 -0.88155519 20.69390527 -2 24 C-2.33 24 -2.66 24 -3 24 C-2.91621094 23.00097656 -2.83242188 22.00195312 -2.74609375 20.97265625 C-2.64425781 19.68230469 -2.54242187 18.39195313 -2.4375 17.0625 C-2.33308594 15.77472656 -2.22867187 14.48695312 -2.12109375 13.16015625 C-2.08113281 12.11730469 -2.04117187 11.07445313 -2 10 C-2.33 9.67 -2.66 9.34 -3 9 C-3.47058824 3.58823529 -3.47058824 3.58823529 -1.5 1.125 C-1.005 0.75375 -0.51 0.3825 0 0 Z " fill="#F08329" transform="translate(21,74)"/>
<path d="M0 0 C5.02254631 -0.2954439 7.89542386 0.01485372 12 3 C11.67 3.66 11.34 4.32 11 5 C10.34 5 9.68 5 9 5 C9 7.31 9 9.62 9 12 C4.99027798 8.32442148 2.54664585 4.81033104 0 0 Z " fill="#CE7022" transform="translate(19,168)"/>
<path d="M0 0 C0.33 0.66 0.66 1.32 1 2 C0.14453125 4.12890625 0.14453125 4.12890625 -1.1875 6.5625 C-1.61417969 7.36816406 -2.04085937 8.17382812 -2.48046875 9.00390625 C-4 11 -4 11 -6.05078125 11.83984375 C-8 12 -8 12 -10 11 C-10 10.01 -10 9.02 -10 8 C-9.34 8 -8.68 8 -8 8 C-8 7.34 -8 6.68 -8 6 C-7.34 6 -6.68 6 -6 6 C-5.67 4.35 -5.34 2.7 -5 1 C-3.68 1 -2.36 1 -1 1 C-0.67 0.67 -0.34 0.34 0 0 Z " fill="#EF8124" transform="translate(197,149)"/>
<path d="M0 0 C0.33 0.66 0.66 1.32 1 2 C1.66 2 2.32 2 3 2 C2.91433603 4.912575 2.42089045 6.56798024 0.375 8.66796875 C-1.38391375 10.16091772 -3.16313019 11.60436262 -5 13 C-5 9.66666667 -5 6.33333333 -5 3 C-3.35 2.67 -1.7 2.34 0 2 C0 1.34 0 0.68 0 0 Z " fill="#ED8327" transform="translate(181,167)"/>
<path d="M0 0 C0.99 0.33 1.98 0.66 3 1 C4.02095523 3.35999701 4.09196987 4.647556 3.44140625 7.140625 C3.15136719 7.83671875 2.86132812 8.5328125 2.5625 9.25 C2.27503906 9.95640625 1.98757812 10.6628125 1.69140625 11.390625 C1.46324219 11.92171875 1.23507813 12.4528125 1 13 C0.67 13 0.34 13 0 13 C0 11.02 0 9.04 0 7 C-0.66 7 -1.32 7 -2 7 C-2.28875 7.804375 -2.5775 8.60875 -2.875 9.4375 C-4 12 -4 12 -6 13 C-5.34 9.7 -4.68 6.4 -4 3 C-3.34 3 -2.68 3 -2 3 C-1.67 2.34 -1.34 1.68 -1 1 C-0.67 0.67 -0.34 0.34 0 0 Z " fill="#EF842A" transform="translate(198,136)"/>
<path d="M0 0 C0.66 0.99 1.32 1.98 2 3 C2.598125 2.835 3.19625 2.67 3.8125 2.5 C6 2 6 2 9 2 C9 2.66 9 3.32 9 4 C8.34 4 7.68 4 7 4 C7.33 6.97 7.66 9.94 8 13 C4.40365256 9.50640535 1.16548033 5.88901869 -2 2 C-1.34 1.34 -0.68 0.68 0 0 Z " fill="#D07020" transform="translate(30,163)"/>
<path d="M0 0 C0.99 0 1.98 0 3 0 C3 0.66 3 1.32 3 2 C5.97 1.34 8.94 0.68 12 0 C12.33 0.66 12.66 1.32 13 2 C10.56781941 3.19963643 8.13029422 4.38484438 5.6875 5.5625 C4.99720703 5.90474609 4.30691406 6.24699219 3.59570312 6.59960938 C-1.66015625 9.11328125 -1.66015625 9.11328125 -5 8 C-3.02 6.68 -1.04 5.36 1 4 C0.67 2.68 0.34 1.36 0 0 Z " fill="#F18628" transform="translate(59,14)"/>
<path d="M0 0 C7.046875 -0.16015625 7.046875 -0.16015625 10 1 C10.66 1.99 11.32 2.98 12 4 C10.35 3.67 8.7 3.34 7 3 C7 4.98 7 6.96 7 9 C5.82460004 8.07347299 4.65989423 7.13336613 3.5 6.1875 C2.52546875 5.40439453 2.52546875 5.40439453 1.53125 4.60546875 C0 3 0 3 0 0 Z " fill="#CD7120" transform="translate(176,31)"/>
<path d="M0 0 C2.64 1.98 5.28 3.96 8 6 C7.34 7.32 6.68 8.64 6 10 C3 11 3 11 0.8125 10.0625 C0.214375 9.711875 -0.38375 9.36125 -1 9 C-0.67 8.01 -0.34 7.02 0 6 C0.66 6 1.32 6 2 6 C1.34 5.01 0.68 4.02 0 3 C0 2.01 0 1.02 0 0 Z " fill="#EA8129" transform="translate(48,176)"/>
<path d="M0 0 C3.25543229 0.34879632 4.01873107 1.02133261 6.25 3.5625 C7.11625 4.7690625 7.11625 4.7690625 8 6 C7.01 6 6.02 6 5 6 C4.67 6.66 4.34 7.32 4 8 C3.01 8.33 2.02 8.66 1 9 C-1.125 3.375 -1.125 3.375 0 0 Z " fill="#EF8228" transform="translate(37,167)"/>
<path d="M0 0 C0.33 0.66 0.66 1.32 1 2 C2.1446875 1.505 2.1446875 1.505 3.3125 1 C6 0 6 0 9 0 C9 0.99 9 1.98 9 3 C9.99 3.33 10.98 3.66 12 4 C9 5 9 5 6 4 C3.6593935 4.27769908 1.32375692 4.60539977 -1 5 C-1 4.34 -1 3.68 -1 3 C-1.99 2.67 -2.98 2.34 -4 2 C-2.68 1.34 -1.36 0.68 0 0 Z " fill="#D87620" transform="translate(63,11)"/>
<path d="M0 0 C3 2 3 2 3.6875 5.125 C3.790625 6.07375 3.89375 7.0225 4 8 C3.01 8.495 3.01 8.495 2 9 C1.34 8.67 0.68 8.34 0 8 C-0.33 9.32 -0.66 10.64 -1 12 C-1 11.01 -1 10.02 -1 9 C-1.66 9 -2.32 9 -3 9 C-3 7.35 -3 5.7 -3 4 C-2.34 4 -1.68 4 -1 4 C-0.67 2.68 -0.34 1.36 0 0 Z " fill="#F1852A" transform="translate(198,72)"/>
<path d="M0 0 C1.32 0 2.64 0 4 0 C4 0.66 4 1.32 4 2 C4.66 2.33 5.32 2.66 6 3 C4.93106782 4.03590338 3.84421512 5.05333942 2.75 6.0625 C1.84507813 6.91521484 1.84507813 6.91521484 0.921875 7.78515625 C-1 9 -1 9 -3.234375 8.68359375 C-3.81703125 8.45800781 -4.3996875 8.23242188 -5 8 C-4.67 7.34 -4.34 6.68 -4 6 C-2.68 6 -1.36 6 0 6 C-0.2784375 4.7934375 -0.2784375 4.7934375 -0.5625 3.5625 C-0.706875 2.716875 -0.85125 1.87125 -1 1 C-0.67 0.67 -0.34 0.34 0 0 Z " fill="#F18327" transform="translate(43,25)"/>
<path d="M0 0 C1 2 1 2 0.25 4.8125 C-0.93275326 7.8285208 -2.08069275 10.38974215 -4 13 C-4.99 13 -5.98 13 -7 13 C-5.35821735 8.22390502 -2.73453298 4.20617096 0 0 Z " fill="#AF621D" transform="translate(29,52)"/>
<path d="M0 0 C0.99 0.33 1.98 0.66 3 1 C3.66 4.3 4.32 7.6 5 11 C4.34 10.67 3.68 10.34 3 10 C3 8.68 3 7.36 3 6 C2.67 6.66 2.34 7.32 2 8 C1.34 8 0.68 8 0 8 C-0.38063221 5.6739143 -0.71269945 3.33944736 -1 1 C-0.67 0.67 -0.34 0.34 0 0 Z " fill="#F38427" transform="translate(28,172)"/>
<path d="M0 0 C1.32 0.66 2.64 1.32 4 2 C4 2.66 4 3.32 4 4 C3.34 4 2.68 4 2 4 C2.33 5.65 2.66 7.3 3 9 C0.5625 8.625 0.5625 8.625 -2 8 C-2.33 7.34 -2.66 6.68 -3 6 C-2.34 6 -1.68 6 -1 6 C-1.33 5.01 -1.66 4.02 -2 3 C-1.34 2.01 -0.68 1.02 0 0 Z " fill="#E47920" transform="translate(146,18)"/>
<path d="M0 0 C3.375 0.25 3.375 0.25 7 1 C8.4375 3.0625 8.4375 3.0625 9 5 C2.375 5.125 2.375 5.125 -1 4 C-0.67 2.68 -0.34 1.36 0 0 Z " fill="#E97D26" transform="translate(19,164)"/>
<path d="M0 0 C1.32 0 2.64 0 4 0 C4.125 3.375 4.125 3.375 4 7 C3.34 7.66 2.68 8.32 2 9 C-0.57781906 6.42218094 -0.62129616 4.5598161 -1 1 C-0.67 0.67 -0.34 0.34 0 0 Z " fill="#F18426" transform="translate(191,42)"/>
<path d="M0 0 C0.66 1.32 1.32 2.64 2 4 C-0.25 6.5625 -0.25 6.5625 -3 9 C-5.3125 8.8125 -5.3125 8.8125 -7 8 C-6.67 7.34 -6.34 6.68 -6 6 C-5.34 6 -4.68 6 -4 6 C-3.71125 5.38125 -3.4225 4.7625 -3.125 4.125 C-2 2 -2 2 0 0 Z " fill="#C5681D" transform="translate(35,30)"/>
<path d="M0 0 C3.73487777 0.4979837 5.81237635 0.87491756 9 3 C8.67 3.66 8.34 4.32 8 5 C7.01 4.67 6.02 4.34 5 4 C5 4.99 5 5.98 5 7 C4.01 6.67 3.02 6.34 2 6 C0.8125 2.9375 0.8125 2.9375 0 0 Z " fill="#F48428" transform="translate(157,14)"/>
<path d="M0 0 C3.73187415 1.44459644 3.73187415 1.44459644 4.875 3.8125 C5.0358641 6.62762177 4.19164995 8.476506 3 11 C2.34 11 1.68 11 1 11 C0.33476361 7.25804529 0 3.79563172 0 0 Z " fill="#F18329" transform="translate(183,47)"/>
<path d="M0 0 C0.33 0 0.66 0 1 0 C1 5.28 1 10.56 1 16 C-0.32 16.33 -1.64 16.66 -3 17 C-2.86722656 16.27554688 -2.73445312 15.55109375 -2.59765625 14.8046875 C-1.69718291 9.87508895 -0.80218034 4.94677877 0 0 Z " fill="#824412" transform="translate(197,122)"/>
<path d="M0 0 C1.32 0.33 2.64 0.66 4 1 C4.33 3.31 4.66 5.62 5 8 C1.535 6.02 1.535 6.02 -2 4 C-1.34 3.67 -0.68 3.34 0 3 C0 2.01 0 1.02 0 0 Z " fill="#D77422" transform="translate(162,18)"/>
<path d="M0 0 C2 1.375 2 1.375 4 3 C4 3.66 4 4.32 4 5 C2.35 5.66 0.7 6.32 -1 7 C-1.99 5.68 -2.98 4.36 -4 3 C-3.01 2.67 -2.02 2.34 -1 2 C-0.67 1.34 -0.34 0.68 0 0 Z " fill="#CE6E1C" transform="translate(46,177)"/>
<path d="M0 0 C0 3 0 3 -1 5 C-1.66 5 -2.32 5 -3 5 C-3.33 5.99 -3.66 6.98 -4 8 C-6.0625 8.6875 -6.0625 8.6875 -8 9 C-8 8.01 -8 7.02 -8 6 C-6.25 4.39453125 -6.25 4.39453125 -4 2.8125 C-3.2575 2.28269531 -2.515 1.75289062 -1.75 1.20703125 C-1.1725 0.80871094 -0.595 0.41039062 0 0 Z " fill="#CF6E23" transform="translate(167,178)"/>
<path d="M0 0 C0.66 0 1.32 0 2 0 C3.2077558 3.62326739 2.54311128 4.64146369 1 8 C0.34 8 -0.32 8 -1 8 C-1.33 8.66 -1.66 9.32 -2 10 C-1.125 2.25 -1.125 2.25 0 0 Z " fill="#B5631F" transform="translate(9,68)"/>
<path d="M0 0 C2.44897847 3.67346771 2.31537716 5.66356399 2 10 C1.34 10.66 0.68 11.32 0 12 C0 11.34 0 10.68 0 10 C-0.66 10 -1.32 10 -2 10 C-1.54177532 6.53058454 -1.10868317 3.32604951 0 0 Z " fill="#B1611E" transform="translate(17,74)"/>
<path d="M0 0 C1.6498275 0.42218816 3.29483665 0.86324425 4.9375 1.3125 C6.31228516 1.67794922 6.31228516 1.67794922 7.71484375 2.05078125 C8.46894531 2.36402344 9.22304687 2.67726563 10 3 C10.33 3.99 10.66 4.98 11 6 C7.27566618 4.7874262 3.62197194 3.49140021 0 2 C0 1.34 0 0.68 0 0 Z M1 4 C2.32 4.33 3.64 4.66 5 5 C4.01 5.33 3.02 5.66 2 6 C1.67 5.34 1.34 4.68 1 4 Z " fill="#DF7927" transform="translate(139,5)"/>
<path d="M0 0 C0.33 0.99 0.66 1.98 1 3 C1.65129797 4.34090759 2.31513275 5.67592331 3 7 C2.01 7.66 1.02 8.32 0 9 C0 8.34 0 7.68 0 7 C-0.66 7 -1.32 7 -2 7 C-2.33 5.35 -2.66 3.7 -3 2 C-2.01 1.34 -1.02 0.68 0 0 Z " fill="#DC7723" transform="translate(156,186)"/>
<path d="M0 0 C0.66 0 1.32 0 2 0 C1.46884894 4.51478398 -0.36620292 7.34666857 -3 11 C-3.93065133 8.39417629 -4.14917407 7.35801776 -3.0625 4.75 C-2.5365625 3.88375 -2.5365625 3.88375 -2 3 C-1.34 3 -0.68 3 0 3 C0 2.01 0 1.02 0 0 Z " fill="#EB842D" transform="translate(201,161)"/>
<path d="M0 0 C0.99 0.99 1.98 1.98 3 3 C2.01 3 1.02 3 0 3 C0 2.01 0 1.02 0 0 Z M-3 2 C-2.01 2.33 -1.02 2.66 0 3 C0 5.66666667 0 8.33333333 0 11 C-1.32 9.68 -2.64 8.36 -4 7 C-3.34 6.67 -2.68 6.34 -2 6 C-2.33 4.68 -2.66 3.36 -3 2 Z " fill="#C56B21" transform="translate(191,39)"/>
<path d="M0 0 C-0.33 0.99 -0.66 1.98 -1 3 C-3.06640625 3.73046875 -3.06640625 3.73046875 -5.5625 4.1875 C-6.38878906 4.34605469 -7.21507813 4.50460938 -8.06640625 4.66796875 C-9.02353516 4.83232422 -9.02353516 4.83232422 -10 5 C-10 4.34 -10 3.68 -10 3 C-3.375 0 -3.375 0 0 0 Z " fill="#EE862F" transform="translate(74,8)"/>
<path d="M0 0 C0.33 0.66 0.66 1.32 1 2 C3.02463255 2.65213292 3.02463255 2.65213292 5 3 C5.33 4.32 5.66 5.64 6 7 C2 7 2 7 0.1875 5.75 C-1 4 -1 4 -0.6875 1.8125 C-0.460625 1.214375 -0.23375 0.61625 0 0 Z " fill="#F38223" transform="translate(190,58)"/>
<path d="M0 0 C0.33 0.66 0.66 1.32 1 2 C-0.32 2.33 -1.64 2.66 -3 3 C-3 3.99 -3 4.98 -3 6 C-4.875 6.625 -4.875 6.625 -7 7 C-7.66 6.34 -8.32 5.68 -9 5 C-6.03 3.35 -3.06 1.7 0 0 Z " fill="#D17021" transform="translate(84,40)"/>
<path d="M0 0 C2.1875 0.3125 2.1875 0.3125 4 1 C3.1875 2.9375 3.1875 2.9375 2 5 C1.01 5.33 0.02 5.66 -1 6 C-1.66 5.67 -2.32 5.34 -3 5 C-3 3 -3 3 -1.75 1.3125 C-1.1725 0.879375 -0.595 0.44625 0 0 Z " fill="#F58527" transform="translate(52,181)"/>
<path d="M0 0 C1.98 0.66 3.96 1.32 6 2 C5.67 3.32 5.34 4.64 5 6 C3.0625 5.25 3.0625 5.25 1 4 C0.25 1.875 0.25 1.875 0 0 Z " fill="#CF711E" transform="translate(169,25)"/>
<path d="M0 0 C1.98 0 3.96 0 6 0 C5.67 1.65 5.34 3.3 5 5 C3.35 4.67 1.7 4.34 0 4 C0 2.68 0 1.36 0 0 Z " fill="#F78326" transform="translate(140,19)"/>
<path d="M0 0 C0.99 0.33 1.98 0.66 3 1 C3 2.98 3 4.96 3 7 C2.01 7.495 2.01 7.495 1 8 C0.01 6.35 -0.98 4.7 -2 3 C-1.34 2.01 -0.68 1.02 0 0 Z " fill="#F18728" transform="translate(174,187)"/>
<path d="M0 0 C0.33 1.32 0.66 2.64 1 4 C0.34 4 -0.32 4 -1 4 C-1 5.32 -1 6.64 -1 8 C-2.65 8.33 -4.3 8.66 -6 9 C-4.02 6.03 -2.04 3.06 0 0 Z " fill="#9E571D" transform="translate(182,161)"/>
<path d="M0 0 C2 3.75 2 3.75 2 6 C1.34 6 0.68 6 0 6 C0 6.66 0 7.32 0 8 C-0.99 8 -1.98 8 -3 8 C-1.125 2.25 -1.125 2.25 0 0 Z " fill="#A95D1B" transform="translate(189,149)"/>
<path d="M0 0 C0.33 0.66 0.66 1.32 1 2 C0.22265625 4.1640625 0.22265625 4.1640625 -0.9375 6.625 C-1.31777344 7.44226563 -1.69804687 8.25953125 -2.08984375 9.1015625 C-2.39019531 9.72804688 -2.69054687 10.35453125 -3 11 C-3.33 11 -3.66 11 -4 11 C-4.17754126 7.09409237 -4.20731737 4.31097606 -2 1 C-1.34 0.67 -0.68 0.34 0 0 Z " fill="#E88230" transform="translate(21,58)"/>
<path d="M0 0 C-0.33 1.32 -0.66 2.64 -1 4 C-3.64 4.33 -6.28 4.66 -9 5 C-6.54789272 1.19923372 -6.54789272 1.19923372 -3.9375 0.25 C-2 0 -2 0 0 0 Z " fill="#F18525" transform="translate(58,29)"/>
<path d="M0 0 C0.99 0 1.98 0 3 0 C1.75023244 3.65316671 1.32901247 4.78065836 -2 7 C-1.125 1.125 -1.125 1.125 0 0 Z " fill="#CA6F25" transform="translate(193,165)"/>
<path d="M0 0 C0.66 0.33 1.32 0.66 2 1 C2.625 4.0625 2.625 4.0625 3 7 C2.01 7.495 2.01 7.495 1 8 C-0.42944945 5.64561267 -1.08661261 4.51967567 -0.625 1.75 C-0.41875 1.1725 -0.2125 0.595 0 0 Z " fill="#C76D23" transform="translate(13,153)"/>
<path d="M0 0 C0.99 0 1.98 0 3 0 C4.60355101 3.50776784 5.22036864 6.14354879 5 10 C2.82145293 6.7321794 1.50239966 3.61941735 0 0 Z " fill="#884B18" transform="translate(128,65)"/>
<path d="M0 0 C0.33 0.66 0.66 1.32 1 2 C1.66 2.33 2.32 2.66 3 3 C1.68 3.99 0.36 4.98 -1 6 C-1.99 5.34 -2.98 4.68 -4 4 C-2.68 2.68 -1.36 1.36 0 0 Z " fill="#AF5D18" transform="translate(39,40)"/>
<path d="M0 0 C0.33 0.99 0.66 1.98 1 3 C-1.475 4.485 -1.475 4.485 -4 6 C-4.66 5.34 -5.32 4.68 -6 4 C-4.02 2.68 -2.04 1.36 0 0 Z " fill="#D17423" transform="translate(58,25)"/>
<path d="M0 0 C1.68762851 1.6454378 3.3540349 3.31288577 5 5 C5 5.33 5 5.66 5 6 C3.35 6 1.7 6 0 6 C0 5.34 0 4.68 0 4 C-0.66 3.34 -1.32 2.68 -2 2 C-1.34 2 -0.68 2 0 2 C0 1.34 0 0.68 0 0 Z " fill="#F48722" transform="translate(66,21)"/>
<path d="M0 0 C1.875 0.125 1.875 0.125 4 1 C5.25 4.0625 5.25 4.0625 6 7 C1.125 2.25 1.125 2.25 0 0 Z " fill="#AB5A17" transform="translate(32,169)"/>
<path d="M0 0 C0 0.99 0 1.98 0 3 C-2.5 4.6875 -2.5 4.6875 -5 6 C-4.75 4.125 -4.75 4.125 -4 2 C-1.9375 0.75 -1.9375 0.75 0 0 Z " fill="#CB7023" transform="translate(45,36)"/>
</svg>
